<svg width="41" height="41" viewBox="0 0 41 41" fill="none" xmlns="http://www.w3.org/2000/svg">
<path d="M20.4689 40.9378C31.7736 40.9378 40.9378 31.7736 40.9378 20.4689C40.9378 9.16424 31.7736 0 20.4689 0C9.16424 0 0 9.16424 0 20.4689C0 31.7736 9.16424 40.9378 20.4689 40.9378Z" fill="#FEBE03"/>
<path d="M11.6976 39.3831C10.8888 38.8232 10.08 38.2632 9.2712 37.7033C9.20899 37.6411 9.08455 37.5789 9.02234 37.4544C9.02234 37.2678 9.02234 37.1434 9.02234 36.9567C9.02234 27.3133 9.02234 17.7321 9.02234 8.08873C9.02234 7.90208 9.02234 7.71543 9.02234 7.591C9.83114 7.591 10.7022 7.591 11.511 7.591C11.5732 7.591 11.6976 7.65322 11.7598 7.65322C11.7598 8.02651 11.822 8.33759 11.822 8.71088C11.822 11.4484 11.822 14.1858 11.822 16.9233V16.9855C11.822 17.7321 11.822 18.4787 11.822 19.2253C11.822 21.4651 11.822 23.7048 11.822 25.8824C11.822 26.069 11.7598 26.1934 11.7598 26.3801C11.7598 30.4863 11.7598 34.6547 11.7598 38.761C11.7598 39.072 11.7598 39.2587 11.6976 39.3831Z" fill="#565B67"/>
<path d="M9.02047 7.65277C9.02047 7.83942 9.02047 8.02606 9.02047 8.15049C9.02047 17.4828 9.02047 26.8774 9.02047 36.2097C9.02047 36.3963 9.02047 36.5208 9.02047 36.7074L8.95825 36.6452C8.95825 27.7484 8.95825 18.8516 8.95825 9.95474C8.95825 9.33259 8.95825 8.71043 8.95825 8.02606C8.95825 7.90163 9.02047 7.7772 9.02047 7.65277Z" fill="#85A7C6"/>
<path d="M18.9108 8.64804C21.7727 8.64804 24.6968 8.64804 27.5587 8.64804C27.6209 8.64804 27.6831 8.71026 27.7454 8.71026C27.7454 8.71026 27.7454 8.71026 27.7454 8.77247C24.8212 8.77247 21.8971 8.77247 18.973 8.77247C18.973 8.71026 18.9108 8.71026 18.9108 8.64804C18.9108 8.71026 18.9108 8.71026 18.9108 8.64804Z" fill="#C78FA1"/>
<path d="M12.7517 8.71026V8.64804C14.8048 8.64804 16.8579 8.64804 18.911 8.64804V8.71026C16.8579 8.71026 14.8048 8.71026 12.7517 8.71026Z" fill="#C8A2B2"/>
<path d="M30.8594 11.9473C31.9793 11.9473 33.0992 11.9473 34.219 11.9473C34.2813 11.9473 34.4057 12.0095 34.4679 12.0095H34.4057C33.1614 12.0095 31.9793 12.0095 30.8594 11.9473C30.7972 11.9473 30.7972 11.9473 30.8594 11.9473Z" fill="#C1667A"/>
<path d="M27.809 8.83379C27.809 9.89145 27.809 10.8869 27.809 11.9446C27.809 11.9446 27.809 11.9446 27.809 12.0068C27.809 11.8823 27.7468 11.7579 27.7468 11.5713C27.7468 10.638 27.7468 9.70481 27.7468 8.83379C27.7468 8.83379 27.7468 8.83379 27.7468 8.77158C27.809 8.77158 27.809 8.77158 27.809 8.83379Z" fill="#AD6E8A"/>
<path d="M30.8567 11.9454C30.7945 11.9454 30.7945 11.9454 30.8567 11.9454C29.8613 12.0076 28.8658 12.0076 27.8704 12.0076V11.9454C27.8704 11.9454 27.8704 11.9454 27.8704 11.8832C28.8658 11.8832 29.799 11.8832 30.7945 11.8832C30.7945 11.8832 30.7945 11.8832 30.8567 11.9454Z" fill="#A45679"/>
<path d="M21.0902 25.5719C20.4058 25.5719 19.6592 25.5719 18.9749 25.5719C18.9749 22.6478 18.9749 19.7859 18.9749 16.8618C19.0371 16.8618 19.0993 16.8618 19.0993 16.8618C21.9612 16.8618 24.8231 16.8618 27.685 16.8618C27.685 17.795 27.685 18.7282 27.685 19.5992C27.685 19.7237 27.7472 19.8481 27.7472 20.0347V20.097C27.7472 21.5901 27.7472 23.1455 27.7472 24.6387C27.7472 24.9498 27.6228 25.2608 27.6228 25.5719C25.5075 25.5097 23.2677 25.5719 21.0902 25.5719Z" fill="#E9ECF4"/>
<path d="M27.6866 25.5105C27.7488 25.1995 27.811 24.8884 27.811 24.5773C27.811 23.0841 27.811 21.5287 27.811 20.0356C29.9263 20.0356 32.0416 20.0356 34.0948 20.0356C34.157 20.0356 34.2192 19.9734 34.2814 19.9734H34.3436C34.3436 22.7731 34.3436 25.5728 34.3436 28.4347C34.3436 28.7457 34.2192 28.808 33.9703 28.808C31.4195 28.808 28.8064 28.808 26.2556 28.808C24.638 28.808 22.9582 28.808 21.3406 28.808C21.3406 28.7457 21.3406 28.7457 21.3406 28.6835C22.5849 28.0614 23.8914 27.4392 25.1357 26.8171C26.0067 26.3816 26.8155 25.946 27.6866 25.5105Z" fill="#CDD2E1"/>
<path d="M18.9748 16.8627C18.9748 19.7868 18.9748 22.6487 18.9748 25.5728C16.6106 25.5728 14.2464 25.5728 11.8822 25.5728C11.8822 23.3953 11.8822 21.2178 11.8822 19.0402C11.8822 18.2936 11.8822 17.547 11.8822 16.8627C14.2464 16.8005 16.6106 16.8005 18.9748 16.8627Z" fill="white"/>
<path d="M27.6838 25.5102C26.875 25.9457 26.004 26.3812 25.1952 26.7545C23.9509 27.3767 22.6444 27.9988 21.4001 28.621C21.3379 28.621 21.2756 28.6832 21.1512 28.6832C21.1512 28.5588 21.089 28.4343 21.089 28.3099C21.089 27.3767 21.089 26.4434 21.089 25.5102C23.2665 25.5724 25.5063 25.5102 27.6838 25.5102Z" fill="#72788A"/>
<path d="M11.6946 38.5105C11.6946 38.3239 11.7568 38.1994 11.7568 38.0128C11.7568 34.031 11.7568 29.987 11.7568 26.0052C11.7568 25.8808 11.7568 25.6941 11.819 25.5697C11.819 25.6319 11.819 25.7563 11.819 25.8186C11.819 30.1114 11.819 34.3421 11.819 38.635C11.819 38.5727 11.7568 38.5727 11.6946 38.5105Z" fill="#5A718C"/>
<path d="M34.4029 19.9703H34.3407C34.3407 17.2951 34.3407 14.682 34.3407 12.0067H34.4029C34.4029 13.4377 34.4029 14.8687 34.4029 16.2996C34.4029 17.5439 34.4029 18.7882 34.4029 19.9703Z" fill="#C12B3C"/>
<path d="M21.153 28.7435C21.2152 28.7435 21.2774 28.6813 21.4018 28.6813C21.4018 28.7435 21.4018 28.7435 21.4018 28.8057C21.3396 28.7435 21.2152 28.7435 21.153 28.7435Z" fill="#B5CAE6"/>
<path d="M12.7532 8.71026C14.8063 8.71026 16.8594 8.71026 18.9126 8.71026H18.9748C18.9748 11.3855 18.9748 14.0608 18.9748 16.6738C16.6106 16.6738 14.2464 16.6738 11.8822 16.6738C11.8822 13.9986 11.8822 11.3233 11.8822 8.64804C12.1933 8.71026 12.4421 8.71026 12.7532 8.71026Z" fill="#F15B43"/>
<path d="M11.8822 16.7382C14.2464 16.7382 16.6106 16.7382 18.9748 16.7382C19.037 16.7382 19.037 16.7382 19.0992 16.7382V16.8004C19.037 16.8004 18.9748 16.8004 18.9748 16.8004C16.6106 16.8004 14.2464 16.8004 11.8822 16.8004V16.7382Z" fill="#F58D7D"/>
<path d="M19.0993 16.7352C19.0371 16.7352 19.0371 16.7352 18.9749 16.7352C18.9749 14.0599 18.9749 11.3846 18.9749 8.77158C21.899 8.77158 24.8231 8.77158 27.7472 8.77158C27.7472 9.70481 27.7472 10.638 27.7472 11.5091C27.7472 11.6335 27.8095 11.7579 27.8095 11.9446V12.0068C27.8095 13.6244 27.8095 15.242 27.8095 16.8596H27.7472C27.6228 16.8596 27.4984 16.7974 27.3739 16.7974C26.6896 16.7974 25.943 16.7974 25.2586 16.7974C23.2055 16.7352 21.1524 16.7352 19.0993 16.7352Z" fill="#EE3224"/>
<path d="M27.8109 16.8001C27.8109 15.1825 27.8109 13.5649 27.8109 11.9473C28.8064 11.9473 29.8018 11.9473 30.7973 11.9473C31.9794 11.9473 33.1614 11.9473 34.3435 11.9473C34.3435 14.6225 34.3435 17.2356 34.3435 19.9108C34.2813 19.9108 34.2191 19.9731 34.1569 19.9731C34.0947 19.9731 33.9702 19.9108 33.908 19.9108C31.9171 19.9108 29.864 19.9108 27.8731 19.9108C27.8109 18.9154 27.8109 17.8577 27.8109 16.8001Z" fill="#DA2126"/>
<path d="M19.0984 16.7382C21.1515 16.7382 23.1424 16.7382 25.1955 16.7382C25.8799 16.7382 26.6265 16.7382 27.3108 16.7382C27.4353 16.7382 27.5597 16.8004 27.6841 16.8004C24.8844 16.8004 22.0225 16.8004 19.0984 16.7382C19.1606 16.8004 19.0984 16.8004 19.0984 16.7382Z" fill="#F2675D"/>
<path d="M27.8109 19.9734C29.8018 19.9734 31.8549 19.9734 33.8458 19.9734C33.908 19.9734 34.0325 20.0356 34.0947 20.0356C31.9793 20.0356 29.864 20.0356 27.8109 20.0356C27.8109 20.0356 27.8109 20.0356 27.8109 19.9734Z" fill="#D56A71"/>
<path d="M27.809 16.7977C27.809 17.8554 27.809 18.913 27.809 19.9707C27.809 19.8463 27.7468 19.7218 27.7468 19.5352C27.7468 18.6019 27.7468 17.6687 27.7468 16.7977H27.809Z" fill="#E3767A"/>
</svg>
