<svg width="21" height="20" viewBox="0 0 21 20" fill="none" xmlns="http://www.w3.org/2000/svg">
<path d="M4.66675 10V14.6667C4.66675 15.7712 5.56218 16.6667 6.66675 16.6667H14.3334C15.438 16.6667 16.3334 15.7712 16.3334 14.6667V10" stroke="#949494" stroke-width="1.7" stroke-linecap="round" stroke-linejoin="round"/>
<path d="M5.5 5C5.5 4.07952 6.24619 3.33333 7.16667 3.33333V3.33333C9.00762 3.33333 10.5 4.82572 10.5 6.66667V6.66667H7.16667C6.24619 6.66667 5.5 5.92047 5.5 5V5Z" stroke="#949494" stroke-width="1.7" stroke-linejoin="round"/>
<path d="M15.5 5C15.5 4.07952 14.7538 3.33333 13.8333 3.33333V3.33333C11.9924 3.33333 10.5 4.82572 10.5 6.66667V6.66667H13.8333C14.7538 6.66667 15.5 5.92047 15.5 5V5Z" stroke="#949494" stroke-width="1.7" stroke-linejoin="round"/>
<rect x="3.83325" y="6.66667" width="13.3333" height="3.33333" stroke="#949494" stroke-width="1.7" stroke-linecap="round" stroke-linejoin="round"/>
<path d="M10.5 10V16.6667" stroke="#949494" stroke-width="1.7" stroke-linecap="round" stroke-linejoin="round"/>
</svg>
