<svg width="41" height="42" viewBox="0 0 41 42" fill="none" xmlns="http://www.w3.org/2000/svg">
<path d="M20.5 41.1133C31.8218 41.1133 41 31.9351 41 20.6133C41 9.29144 31.8218 0.113281 20.5 0.113281C9.17816 0.113281 0 9.29144 0 20.6133C0 31.9351 9.17816 41.1133 20.5 41.1133Z" fill="#3B99FD"/>
<path d="M7.79248 20.385C8.01097 19.8555 8.44794 19.7798 8.95775 19.7798C9.54038 19.7798 10.0502 19.7798 10.6328 19.7798C11.1426 19.7798 11.5068 20.1581 11.5068 20.6119C11.5068 21.0658 11.1426 21.4441 10.6328 21.4441C10.0502 21.4441 9.54038 21.4441 8.95775 21.4441C8.44794 21.4441 8.0838 21.3684 7.79248 20.8389C7.79248 20.7632 7.79248 20.5363 7.79248 20.385Z" fill="#FDC115"/>
<path d="M20.7552 6.9216C21.1922 7.14854 21.4107 7.52677 21.3378 8.05629C21.3378 8.66145 21.3378 9.34226 21.3378 9.94743C21.3378 10.477 20.9737 10.8552 20.5367 10.8552C20.0997 10.8552 19.7356 10.477 19.7356 9.94743C19.7356 9.34226 19.7356 8.7371 19.7356 8.13193C19.7356 7.60241 19.8084 7.14854 20.3182 6.9216C20.4639 6.9216 20.6095 6.9216 20.7552 6.9216Z" fill="#FDC115"/>
<path d="M17.2594 29.237C17.0409 28.178 16.5311 27.4215 15.73 26.7407C15.4387 26.5138 15.2202 26.2112 15.0017 25.9842C11.2146 21.4455 13.3266 14.2591 18.8617 12.8975C23.0858 11.8385 27.3098 14.94 27.8925 19.5543C28.2566 22.5045 27.3827 24.9252 25.2706 26.8163C24.5423 27.4971 23.9597 28.2536 23.7412 29.237C21.6292 29.237 19.4443 29.237 17.2594 29.237ZM25.3435 20.2352C25.3435 20.0839 25.2706 19.9326 25.2706 19.7813C25.125 18.344 24.4695 17.2093 23.3771 16.3772C22.7216 15.8477 21.9205 15.6208 21.1194 15.4695C20.828 15.4695 20.4639 15.4695 20.2454 15.7721C20.0269 15.999 19.9541 16.3772 20.0998 16.6798C20.2454 17.058 20.5367 17.2093 20.9009 17.2093C21.1922 17.2093 21.4835 17.285 21.7748 17.3606C23.0858 17.8901 23.7412 18.8735 23.814 20.3864C23.814 20.916 24.3238 21.3698 24.8336 21.2185C25.125 21.0673 25.3435 20.689 25.3435 20.2352Z" fill="#FDC114"/>
<path d="M17.26 29.2382C19.4449 29.2382 21.5569 29.2382 23.7418 29.2382C23.7418 30.2216 23.7418 31.2807 23.669 32.2641C23.669 33.4744 22.8679 34.3821 21.7026 34.3821C20.9015 34.3821 20.1003 34.3821 19.3721 34.3821C18.2068 34.4578 17.3328 33.6257 17.3328 32.1884C17.3328 31.5832 17.3328 30.9024 17.3328 30.2973C17.3328 29.919 17.3328 29.5408 17.26 29.2382Z" fill="#FFDC6F"/>
<path d="M31.4631 21.5218C31.0989 21.5218 30.8076 21.5218 30.4435 21.5218C30.0065 21.5218 29.6423 21.1436 29.6423 20.6897C29.6423 20.2359 30.0065 19.8576 30.4435 19.8576C31.0989 19.8576 31.8272 19.8576 32.4827 19.8576C32.9196 19.8576 33.2838 20.2359 33.2838 20.6897C33.2838 21.1436 32.9196 21.5218 32.4827 21.5218C32.1185 21.5218 31.7544 21.5218 31.4631 21.5218Z" fill="#FDC116"/>
<path d="M14.3462 13.0485C14.3462 13.5023 14.2006 13.7293 13.9092 13.8806C13.6179 14.0319 13.3266 14.0319 13.1081 13.8049C12.5983 13.2754 12.0157 12.6702 11.5059 12.1407C11.2146 11.8381 11.2874 11.3086 11.5787 11.006C11.87 10.7034 12.3798 10.7034 12.6712 11.006C13.181 11.5355 13.6908 12.0651 14.2006 12.6702C14.2734 12.7459 14.3462 12.9728 14.3462 13.0485Z" fill="#FDC116"/>
<path d="M27.6027 14.0321C27.2386 13.9565 26.9472 13.8808 26.8016 13.5026C26.6559 13.2 26.6559 12.8218 26.8744 12.5949C27.3842 11.9897 27.894 11.4602 28.4767 10.855C28.768 10.5524 29.205 10.6281 29.4963 10.9307C29.7876 11.2332 29.8604 11.7628 29.5691 12.0653C29.0593 12.6705 28.4767 13.2 27.9669 13.8052C27.894 13.9565 27.6755 13.9565 27.6027 14.0321Z" fill="#FDC116"/>
<path d="M27.5995 27.2706C27.6723 27.3462 27.8908 27.4219 28.0365 27.5732C28.5463 28.1027 29.0561 28.6322 29.4931 29.1617C29.7844 29.54 29.7844 29.9938 29.4931 30.3721C29.2018 30.7503 28.6919 30.7503 28.3278 30.3721C27.818 29.8426 27.3082 29.313 26.8712 28.7835C26.6527 28.4809 26.5799 28.1783 26.7256 27.8758C26.944 27.4975 27.1625 27.3462 27.5995 27.2706Z" fill="#FDC116"/>
<path d="M14.3473 28.2548C14.2744 28.4061 14.2016 28.5574 14.1288 28.7087C13.6918 29.2382 13.182 29.7678 12.6722 30.2973C12.3081 30.6755 11.8711 30.6755 11.5069 30.2973C11.2156 29.9947 11.2156 29.4652 11.5069 29.0869C12.0167 28.5574 12.4537 28.0279 12.9635 27.4984C13.2548 27.1958 13.5462 27.1958 13.8375 27.3471C14.2016 27.4984 14.3473 27.801 14.3473 28.2548Z" fill="#FDC116"/>
<path d="M25.343 20.235C25.343 20.7646 25.1245 21.0671 24.7604 21.2184C24.2506 21.3697 23.7407 20.9915 23.7407 20.3863C23.6679 18.8734 23.0125 17.89 21.7015 17.3605C21.4102 17.2849 21.1189 17.2092 20.8276 17.2092C20.4634 17.2092 20.1721 17.0579 20.0265 16.6797C19.8808 16.3771 19.9536 15.9989 20.1721 15.7719C20.3906 15.4694 20.7548 15.4694 21.0461 15.4694C21.8472 15.545 22.6483 15.8476 23.3038 16.3771C24.3962 17.2092 25.0517 18.3439 25.1973 19.7812C25.2702 19.9325 25.343 20.0838 25.343 20.235Z" fill="#FFD550"/>
</svg>
