<svg width="68" height="66" viewBox="0 0 68 66" fill="none" xmlns="http://www.w3.org/2000/svg">
<path d="M28.8732 0H40.2961L37.7577 33.6343H31.4116L28.8732 0Z" fill="url(#paint0_linear_162_471)"/>
<path d="M67.2695 26.9705L67.2695 38.3934L33.6353 35.855L33.6353 29.5089L67.2695 26.9705Z" fill="url(#paint1_linear_162_471)"/>
<path d="M0 26.9705L4.99313e-07 38.3934L33.6343 35.855L33.6343 29.5089L0 26.9705Z" fill="url(#paint2_linear_162_471)"/>
<path d="M53.3806 4.86133L61.4579 12.9386L35.8799 34.9266L31.3926 30.4393L53.3806 4.86133Z" fill="url(#paint3_linear_162_471)"/>
<path d="M5.81262 52.4261L13.8899 60.5034L35.8779 34.9254L31.3906 30.4381L5.81262 52.4261Z" fill="url(#paint4_linear_162_471)"/>
<path d="M61.4569 52.4261L53.3797 60.5034L31.3916 34.9254L35.879 30.4381L61.4569 52.4261Z" fill="url(#paint5_linear_162_471)"/>
<path d="M13.8889 4.86133L5.81167 12.9386L31.3896 34.9266L35.877 30.4393L13.8889 4.86133Z" fill="url(#paint6_linear_162_471)"/>
<path d="M28.8732 66H40.2961L37.7577 32.3657H31.4116L28.8732 66Z" fill="url(#paint7_linear_162_471)"/>
<path d="M35.2544 52.681C46.6686 52.681 55.9216 43.428 55.9216 32.0138C55.9216 20.5997 46.6686 11.3467 35.2544 11.3467C23.8403 11.3467 14.5873 20.5997 14.5873 32.0138C14.5873 43.428 23.8403 52.681 35.2544 52.681Z" fill="#3B99FD"/>
<path d="M22.4437 31.7822C22.664 31.2484 23.1045 31.1721 23.6185 31.1721C24.2059 31.1721 24.7198 31.1721 25.3072 31.1721C25.8212 31.1721 26.1883 31.5534 26.1883 32.011C26.1883 32.4686 25.8212 32.8499 25.3072 32.8499C24.7198 32.8499 24.2059 32.8499 23.6185 32.8499C23.1045 32.8499 22.7374 32.7736 22.4437 32.2398C22.4437 32.1635 22.4437 31.9347 22.4437 31.7822Z" fill="#FDC115"/>
<path d="M35.5085 18.2108C35.9491 18.4396 36.1693 18.8209 36.0959 19.3548C36.0959 19.9649 36.0959 20.6512 36.0959 21.2613C36.0959 21.7952 35.7288 22.1765 35.2882 22.1765C34.8477 22.1765 34.4806 21.7952 34.4806 21.2613C34.4806 20.6512 34.4806 20.0411 34.4806 19.431C34.4806 18.8972 34.554 18.4396 35.068 18.2108C35.2148 18.2108 35.3617 18.2108 35.5085 18.2108Z" fill="#FDC115"/>
<path d="M31.985 40.7074C31.7647 39.6398 31.2507 38.8771 30.4431 38.1908C30.1494 37.962 29.9291 37.6569 29.7089 37.4281C25.8909 32.8524 28.0201 25.6074 33.6003 24.2347C37.8588 23.167 42.1173 26.2938 42.7047 30.9458C43.0718 33.9201 42.1908 36.3605 40.0615 38.267C39.3273 38.9534 38.7399 39.716 38.5196 40.7074C36.3903 40.7074 34.1877 40.7074 31.985 40.7074ZM40.1349 31.6322C40.1349 31.4797 40.0615 31.3271 40.0615 31.1746C39.9146 29.7256 39.2538 28.5817 38.1525 27.7428C37.4917 27.209 36.684 26.9802 35.8764 26.8276C35.5827 26.8276 35.2156 26.8276 34.9953 27.1327C34.775 27.3615 34.7016 27.7428 34.8485 28.0478C34.9953 28.4292 35.289 28.5817 35.6561 28.5817C35.9498 28.5817 36.2435 28.6579 36.5372 28.7342C37.8588 29.268 38.5196 30.2595 38.593 31.7847C38.593 32.3185 39.107 32.7761 39.621 32.6236C39.9146 32.4711 40.1349 32.0898 40.1349 31.6322Z" fill="#FDC114"/>
<path d="M31.989 40.7095C34.1917 40.7095 36.321 40.7095 38.5237 40.7095C38.5237 41.7009 38.5237 42.7686 38.4502 43.76C38.4502 44.9802 37.6426 45.8953 36.4678 45.8953C35.6602 45.8953 34.8525 45.8953 34.1183 45.8953C32.9435 45.9716 32.0624 45.1327 32.0624 43.6837C32.0624 43.0736 32.0624 42.3872 32.0624 41.7771C32.0624 41.3958 32.0624 41.0145 31.989 40.7095Z" fill="#FFDC6F"/>
<path d="M46.3109 32.929C45.9438 32.929 45.6501 32.929 45.283 32.929C44.8425 32.929 44.4753 32.5477 44.4753 32.0901C44.4753 31.6325 44.8425 31.2512 45.283 31.2512C45.9438 31.2512 46.678 31.2512 47.3388 31.2512C47.7794 31.2512 48.1465 31.6325 48.1465 32.0901C48.1465 32.5477 47.7794 32.929 47.3388 32.929C46.9717 32.929 46.6046 32.929 46.3109 32.929Z" fill="#FDC116"/>
<path d="M29.0495 24.388C29.0495 24.8455 28.9026 25.0743 28.6089 25.2269C28.3153 25.3794 28.0216 25.3794 27.8013 25.1506C27.2873 24.6168 26.6999 24.0067 26.186 23.4728C25.8923 23.1678 25.9657 22.6339 26.2594 22.3289C26.5531 22.0238 27.0671 22.0238 27.3608 22.3289C27.8747 22.8627 28.3887 23.3966 28.9026 24.0067C28.9761 24.0829 29.0495 24.3117 29.0495 24.388Z" fill="#FDC116"/>
<path d="M42.4157 25.3787C42.0486 25.3024 41.7549 25.2261 41.6081 24.8448C41.4612 24.5398 41.4612 24.1585 41.6815 23.9297C42.1955 23.3196 42.7094 22.7857 43.2968 22.1756C43.5905 21.8706 44.031 21.9469 44.3247 22.2519C44.6184 22.557 44.6918 23.0908 44.3982 23.3958C43.8842 24.0059 43.2968 24.5398 42.7828 25.1499C42.7094 25.3024 42.4892 25.3024 42.4157 25.3787Z" fill="#FDC116"/>
<path d="M42.4126 38.7244C42.486 38.8006 42.7062 38.8769 42.8531 39.0294C43.367 39.5633 43.881 40.0971 44.3215 40.6309C44.6152 41.0122 44.6152 41.4698 44.3215 41.8511C44.0279 42.2324 43.5139 42.2324 43.1468 41.8511C42.6328 41.3173 42.1189 40.7835 41.6783 40.2496C41.4581 39.9446 41.3846 39.6395 41.5315 39.3345C41.7517 38.9532 41.972 38.8006 42.4126 38.7244Z" fill="#FDC116"/>
<path d="M29.0512 39.7176C28.9777 39.8701 28.9043 40.0227 28.8309 40.1752C28.3904 40.709 27.8764 41.2429 27.3624 41.7767C26.9953 42.158 26.5548 42.158 26.1877 41.7767C25.894 41.4716 25.894 40.9378 26.1877 40.5565C26.7016 40.0227 27.1422 39.4888 27.6561 38.955C27.9498 38.6499 28.2435 38.6499 28.5372 38.8025C28.9043 38.955 29.0512 39.26 29.0512 39.7176Z" fill="#FDC116"/>
<path d="M40.1352 31.6314C40.1352 32.1653 39.915 32.4703 39.5479 32.6229C39.0339 32.7754 38.5199 32.3941 38.5199 31.784C38.4465 30.2587 37.7857 29.2673 36.4641 28.7335C36.1704 28.6572 35.8767 28.5809 35.583 28.5809C35.2159 28.5809 34.9222 28.4284 34.7754 28.0471C34.6285 27.7421 34.7019 27.3607 34.9222 27.132C35.1425 26.8269 35.5096 26.8269 35.8033 26.8269C36.6109 26.9032 37.4186 27.2082 38.0794 27.7421C39.1808 28.5809 39.8416 29.7249 39.9884 31.1739C40.0618 31.3264 40.1352 31.4789 40.1352 31.6314Z" fill="#FFD550"/>
<defs>
<linearGradient id="paint0_linear_162_471" x1="34.5846" y1="0" x2="34.5846" y2="33.6343" gradientUnits="userSpaceOnUse">
<stop stop-color="white" stop-opacity="0"/>
<stop offset="1" stop-color="white"/>
</linearGradient>
<linearGradient id="paint1_linear_162_471" x1="67.2695" y1="32.6819" x2="33.6353" y2="32.6819" gradientUnits="userSpaceOnUse">
<stop stop-color="white" stop-opacity="0"/>
<stop offset="1" stop-color="white"/>
</linearGradient>
<linearGradient id="paint2_linear_162_471" x1="2.49657e-07" y1="32.6819" x2="33.6343" y2="32.6819" gradientUnits="userSpaceOnUse">
<stop stop-color="white" stop-opacity="0"/>
<stop offset="1" stop-color="white"/>
</linearGradient>
<linearGradient id="paint3_linear_162_471" x1="57.4192" y1="8.89995" x2="33.6362" y2="32.683" gradientUnits="userSpaceOnUse">
<stop stop-color="white" stop-opacity="0"/>
<stop offset="1" stop-color="white"/>
</linearGradient>
<linearGradient id="paint4_linear_162_471" x1="9.85125" y1="56.4648" x2="33.6343" y2="32.6818" gradientUnits="userSpaceOnUse">
<stop stop-color="white" stop-opacity="0"/>
<stop offset="1" stop-color="white"/>
</linearGradient>
<linearGradient id="paint5_linear_162_471" x1="57.4183" y1="56.4648" x2="33.6353" y2="32.6818" gradientUnits="userSpaceOnUse">
<stop stop-color="white" stop-opacity="0"/>
<stop offset="1" stop-color="white"/>
</linearGradient>
<linearGradient id="paint6_linear_162_471" x1="9.85029" y1="8.89995" x2="33.6333" y2="32.683" gradientUnits="userSpaceOnUse">
<stop stop-color="white" stop-opacity="0"/>
<stop offset="1" stop-color="white"/>
</linearGradient>
<linearGradient id="paint7_linear_162_471" x1="34.5846" y1="66" x2="34.5846" y2="32.3657" gradientUnits="userSpaceOnUse">
<stop stop-color="white" stop-opacity="0"/>
<stop offset="1" stop-color="white"/>
</linearGradient>
</defs>
</svg>
