<svg width="68" height="66" viewBox="0 0 68 66" fill="none" xmlns="http://www.w3.org/2000/svg">
<path d="M28.8745 0H40.2975L37.759 33.6343H31.4129L28.8745 0Z" fill="url(#paint0_linear_47_1680)"/>
<path d="M67.2695 26.9702L67.2695 38.3932L33.6352 35.8547L33.6352 29.5086L67.2695 26.9702Z" fill="url(#paint1_linear_47_1680)"/>
<path d="M-0.00012207 26.9702L-0.000121571 38.3932L33.6342 35.8547L33.6342 29.5086L-0.00012207 26.9702Z" fill="url(#paint2_linear_47_1680)"/>
<path d="M53.38 4.86145L61.4573 12.9387L35.8793 34.9268L31.3919 30.4394L53.38 4.86145Z" fill="url(#paint3_linear_47_1680)"/>
<path d="M5.81287 52.427L13.8901 60.5043L35.8782 34.9263L31.3908 30.4389L5.81287 52.427Z" fill="url(#paint4_linear_47_1680)"/>
<path d="M61.4535 52.427L53.3762 60.5043L31.3882 34.9263L35.8755 30.4389L61.4535 52.427Z" fill="url(#paint5_linear_47_1680)"/>
<path d="M13.8895 4.86145L5.81227 12.9387L31.3902 34.9268L35.8776 30.4394L13.8895 4.86145Z" fill="url(#paint6_linear_47_1680)"/>
<path d="M28.8745 66H40.2975L37.759 32.3657H31.4129L28.8745 66Z" fill="url(#paint7_linear_47_1680)"/>
<path d="M34.4413 53.2627C45.8558 53.2627 55.109 44.0092 55.109 32.5945C55.109 21.1798 45.8558 11.9264 34.4413 11.9264C23.0269 11.9264 13.7737 21.1798 13.7737 32.5945C13.7737 44.0092 23.0269 53.2627 34.4413 53.2627Z" fill="#FF2E6D"/>
<path d="M34.6117 20.9319C35.574 21.3587 36.5977 21.7214 37.4576 22.2335C39.0341 23.1725 40.2625 24.3461 41.1225 25.7118C41.7776 26.7574 42.1871 27.867 42.3714 29.0406C42.6785 30.9611 42.2076 32.7962 41.0815 34.5247C40.4468 35.5062 39.6074 36.4025 38.8498 37.3627C38.1332 38.2589 37.2733 39.1125 36.9457 40.1581C36.6796 41.0543 36.741 41.9292 37.0072 42.8041C37.2528 43.7003 37.4576 44.6179 37.6828 45.5141C35.6149 45.5141 33.5266 45.5141 31.4587 45.5141C31.8067 44.2765 32.2367 43.0388 32.4414 41.7798C32.6462 40.5635 32.1343 39.4539 31.2539 38.4083C30.3531 37.32 29.4522 36.2318 28.5718 35.1435C27.6095 33.9058 27.0567 32.5828 26.852 31.1745C26.5654 29.19 27.0363 27.3122 28.2442 25.5411C29.6979 23.4499 31.7658 21.8921 34.6117 20.9319Z" fill="white"/>
<path d="M35.3902 45.4904C35.206 44.3595 34.9807 43.2712 34.8374 42.1829C34.7146 41.244 34.9398 40.3478 35.3902 39.5156C36.1273 38.1713 36.9463 36.8696 37.6424 35.5252C38.6456 33.5834 39.0141 31.4922 38.8504 29.3157C38.7275 27.8646 38.3794 26.4563 37.7243 25.1546C37.3148 24.3438 36.8029 23.5756 36.2092 22.85C35.6154 22.1245 34.8579 21.4844 34.1823 20.8442C35.3902 20.3107 36.762 20.3107 38.1338 20.3534C39.1779 20.3748 40.1402 20.6735 41.082 21.0576C42.331 21.5911 43.3751 22.3593 44.276 23.3622C45.2178 24.4078 45.8935 25.6027 46.3234 26.9044C46.6715 27.9713 46.8353 29.0383 46.8353 30.1479C46.8353 30.3186 46.8557 30.4893 46.8353 30.66C46.7124 31.5349 47.04 32.2818 47.5519 33.0073C48.0228 33.6688 48.4322 34.3943 48.8622 35.0985C49.1079 35.5039 48.9851 35.7173 48.3504 36.016C47.9409 36.2081 47.5314 36.3788 47.1629 36.6135C46.9991 36.7202 46.8762 36.9549 46.8557 37.147C46.651 38.2779 46.4667 39.4302 46.262 40.5825C46.0573 41.7135 45.1973 42.503 43.9279 42.439C43.2523 42.3963 42.5766 42.4603 41.901 42.4177C40.8978 42.3536 39.9969 43.0792 39.8536 43.9967C39.7717 44.4235 39.6898 44.8716 39.6079 45.2984C39.5874 45.3837 39.4851 45.5118 39.4236 45.5118C38.0723 45.4904 36.7415 45.4904 35.3902 45.4904ZM44.1736 32.7726C44.8083 32.8152 45.3407 32.4951 45.832 32.1537C46.1187 31.9403 46.1391 31.4709 45.8935 31.1935C45.7092 30.9588 45.3611 30.9161 45.0335 31.1508C44.4398 31.5776 43.8665 31.5989 43.2728 31.1721C42.9452 30.9374 42.5766 30.9801 42.3924 31.2148C42.1672 31.4922 42.1876 31.983 42.4743 32.1964C42.9861 32.5165 43.498 32.7939 44.1736 32.7726Z" fill="#1FDEFF"/>
<path d="M34.4491 20.9537C33.712 21.6792 32.893 22.3407 32.2379 23.1089C30.9889 24.5386 30.2519 26.1816 29.8629 27.9528C29.4739 29.7452 29.4943 31.559 30.0471 33.3301C30.3542 34.333 30.8047 35.2933 31.296 36.2322C31.9103 37.4058 32.6883 38.5368 33.323 39.7104C33.8348 40.6706 33.9372 41.7162 33.7529 42.7832C33.5892 43.6794 33.4049 44.5543 33.2001 45.4932C32.9545 45.4932 32.7088 45.4932 32.4631 45.4932C31.4189 45.4932 30.3747 45.4932 29.3305 45.4932C29.0644 45.4932 28.962 45.4505 28.9006 45.1731C28.7573 44.533 28.6139 43.8928 28.3478 43.2953C28.1021 42.7405 27.5288 42.4418 26.8736 42.4204C26.0547 42.3991 25.2152 42.3991 24.3963 42.4204C23.1473 42.4631 22.2874 41.6736 22.0827 40.6493C21.8575 39.5184 21.6527 38.3874 21.4889 37.2351C21.4275 36.8083 21.1614 36.5949 20.8133 36.4029C20.4038 36.2108 19.9943 35.9975 19.5848 35.8054C19.2163 35.6347 19.2163 35.4 19.4006 35.1439C19.7077 34.6531 20.0353 34.1623 20.3424 33.6715C20.67 33.1594 21.018 32.6473 21.3251 32.1352C21.4275 31.9644 21.4685 31.7297 21.4685 31.5163C21.4889 30.3427 21.4275 29.1477 21.7142 27.9954C21.9598 26.9285 22.3693 25.9042 22.9631 24.944C23.7001 23.7277 24.6829 22.7248 25.9318 21.9352C26.587 21.5085 27.3445 21.2097 28.1021 20.9323C29.8833 20.2708 31.7055 20.3348 33.5482 20.6336C33.8553 20.7403 34.1829 20.8683 34.4491 20.9537ZM24.1915 32.8393C24.8672 32.882 25.42 32.5833 25.9114 32.2418C26.198 32.0498 26.2389 31.559 26.0137 31.2603C25.809 31.0042 25.4404 30.9829 25.0719 31.2176C24.4372 31.6017 23.9458 31.6017 23.3111 31.1962C22.9631 30.9829 22.5945 30.9829 22.4103 31.2389C22.1646 31.5377 22.1851 32.0071 22.4922 32.1992C22.9836 32.5619 23.5159 32.8607 24.1915 32.8393Z" fill="#FFC359"/>
<path d="M44.1326 32.7738C43.3546 32.8164 42.7403 32.4963 42.1466 32.1336C41.819 31.9202 41.7781 31.4081 42.0442 31.1093C42.2694 30.8533 42.6994 30.8106 43.0679 31.0667C43.764 31.5148 44.4397 31.4934 45.1153 31.0453C45.4839 30.8106 45.8729 30.8533 46.0981 31.088C46.3847 31.4081 46.3643 31.8989 46.0367 32.1122C45.4839 32.475 44.8696 32.8164 44.1326 32.7738Z" fill="#46BAC6"/>
<path d="M24.2734 32.9457C23.5773 32.9884 23.0245 32.647 22.5126 32.2629C22.1851 32.0282 22.1851 31.516 22.4307 31.1746C22.6355 30.8972 23.004 30.8759 23.3726 31.1319C24.0277 31.5801 24.5601 31.5801 25.1948 31.1533C25.5838 30.8972 25.9728 30.8972 26.1775 31.196C26.4027 31.516 26.3823 32.0709 26.0751 32.2842C25.5428 32.6683 24.9695 32.9884 24.2734 32.9457Z" fill="#CD9840"/>
<defs>
<linearGradient id="paint0_linear_47_1680" x1="34.586" y1="0" x2="34.586" y2="33.6343" gradientUnits="userSpaceOnUse">
<stop stop-color="white" stop-opacity="0"/>
<stop offset="1" stop-color="white"/>
</linearGradient>
<linearGradient id="paint1_linear_47_1680" x1="67.2695" y1="32.6817" x2="33.6352" y2="32.6817" gradientUnits="userSpaceOnUse">
<stop stop-color="white" stop-opacity="0"/>
<stop offset="1" stop-color="white"/>
</linearGradient>
<linearGradient id="paint2_linear_47_1680" x1="-0.000121821" y1="32.6817" x2="33.6342" y2="32.6817" gradientUnits="userSpaceOnUse">
<stop stop-color="white" stop-opacity="0"/>
<stop offset="1" stop-color="white"/>
</linearGradient>
<linearGradient id="paint3_linear_47_1680" x1="57.4186" y1="8.90008" x2="33.6356" y2="32.6831" gradientUnits="userSpaceOnUse">
<stop stop-color="white" stop-opacity="0"/>
<stop offset="1" stop-color="white"/>
</linearGradient>
<linearGradient id="paint4_linear_47_1680" x1="9.85149" y1="56.4656" x2="33.6345" y2="32.6826" gradientUnits="userSpaceOnUse">
<stop stop-color="white" stop-opacity="0"/>
<stop offset="1" stop-color="white"/>
</linearGradient>
<linearGradient id="paint5_linear_47_1680" x1="57.4149" y1="56.4656" x2="33.6318" y2="32.6826" gradientUnits="userSpaceOnUse">
<stop stop-color="white" stop-opacity="0"/>
<stop offset="1" stop-color="white"/>
</linearGradient>
<linearGradient id="paint6_linear_47_1680" x1="9.8509" y1="8.90008" x2="33.6339" y2="32.6831" gradientUnits="userSpaceOnUse">
<stop stop-color="white" stop-opacity="0"/>
<stop offset="1" stop-color="white"/>
</linearGradient>
<linearGradient id="paint7_linear_47_1680" x1="34.586" y1="66" x2="34.586" y2="32.3657" gradientUnits="userSpaceOnUse">
<stop stop-color="white" stop-opacity="0"/>
<stop offset="1" stop-color="white"/>
</linearGradient>
</defs>
</svg>
