<svg width="41" height="42" viewBox="0 0 41 42" fill="none" xmlns="http://www.w3.org/2000/svg">
<path d="M20.4995 41.4004C31.8211 41.4004 40.999 32.2222 40.999 20.9004C40.999 9.57855 31.8211 0.400391 20.4995 0.400391C9.17795 0.400391 0 9.57855 0 20.9004C0 32.2222 9.17795 41.4004 20.4995 41.4004Z" fill="#FF2E6D"/>
<path d="M20.6711 9.33417C21.6255 9.75747 22.6409 10.1173 23.4938 10.6252C25.0575 11.5565 26.276 12.7206 27.1289 14.0752C27.7787 15.1123 28.1849 16.2128 28.3676 17.3769C28.6723 19.2818 28.2052 21.102 27.0883 22.8164C26.4587 23.79 25.6261 24.6789 24.8747 25.6313C24.164 26.5203 23.3111 27.3669 22.9861 28.404C22.7221 29.2929 22.7831 30.1607 23.0471 31.0284C23.2907 31.9174 23.4938 32.8275 23.7172 33.7164C21.6661 33.7164 19.5948 33.7164 17.5437 33.7164C17.8889 32.4888 18.3154 31.2613 18.5185 30.0125C18.7215 28.8061 18.2139 27.7055 17.3406 26.6684C16.4471 25.589 15.5536 24.5096 14.6803 23.4301C13.7259 22.2026 13.1776 20.8903 12.9745 19.4934C12.6902 17.5251 13.1573 15.6625 14.3554 13.9058C15.7972 11.8317 17.8483 10.2866 20.6711 9.33417Z" fill="white"/>
<path d="M21.4407 33.693C21.2579 32.5713 21.0346 31.4919 20.8924 30.4124C20.7706 29.4812 20.9939 28.5922 21.4407 27.7668C22.1718 26.4334 22.9841 25.1423 23.6745 23.8089C24.6696 21.8829 25.0351 19.8087 24.8727 17.6499C24.7508 16.2106 24.4056 14.8137 23.7558 13.5227C23.3496 12.7184 22.8419 11.9564 22.253 11.2368C21.6641 10.5172 20.9127 9.88226 20.2426 9.2473C21.4407 8.71817 22.8013 8.71817 24.1619 8.7605C25.1976 8.78167 26.1521 9.07798 27.0862 9.45895C28.325 9.98808 29.3607 10.75 30.2542 11.7448C31.1883 12.7819 31.8585 13.9671 32.2849 15.2582C32.6302 16.3165 32.7926 17.3747 32.7926 18.4753C32.7926 18.6446 32.8129 18.8139 32.7926 18.9833C32.6708 19.851 32.9957 20.5918 33.5034 21.3114C33.9705 21.9675 34.3766 22.6872 34.8031 23.3856C35.0468 23.7877 34.9249 23.9994 34.2954 24.2957C33.8892 24.4862 33.4831 24.6555 33.1176 24.8883C32.9551 24.9942 32.8333 25.227 32.8129 25.4175C32.6099 26.5392 32.4271 27.6821 32.224 28.8251C32.0209 29.9468 31.168 30.7299 29.909 30.6664C29.2388 30.6241 28.5687 30.6876 27.8985 30.6453C26.9034 30.5818 26.0099 31.3014 25.8678 32.2115C25.7865 32.6348 25.7053 33.0792 25.6241 33.5025C25.6038 33.5872 25.5022 33.7142 25.4413 33.7142C24.101 33.693 22.781 33.693 21.4407 33.693ZM30.1527 21.0786C30.7822 21.1209 31.3102 20.8035 31.7976 20.4648C32.0819 20.2532 32.1022 19.7875 31.8585 19.5124C31.6757 19.2796 31.3305 19.2372 31.0056 19.4701C30.4166 19.8934 29.848 19.9145 29.2591 19.4912C28.9342 19.2584 28.5687 19.3007 28.3859 19.5336C28.1625 19.8087 28.1828 20.2955 28.4671 20.5072C28.9748 20.8246 29.4825 21.0998 30.1527 21.0786Z" fill="#1FDEFF"/>
<path d="M20.5085 9.35591C19.7774 10.0755 18.9651 10.7316 18.3153 11.4936C17.0765 12.9117 16.3455 14.5414 15.9596 16.2981C15.5738 18.0759 15.5941 19.875 16.1424 21.6317C16.447 22.6264 16.8938 23.5789 17.3812 24.5101C17.9904 25.6742 18.7621 26.796 19.3916 27.9601C19.8993 28.9125 20.0008 29.9496 19.8181 31.0078C19.6556 31.8968 19.4728 32.7645 19.2698 33.6958C19.0261 33.6958 18.7824 33.6958 18.5387 33.6958C17.503 33.6958 16.4673 33.6958 15.4316 33.6958C15.1676 33.6958 15.0661 33.6535 15.0052 33.3783C14.863 32.7434 14.7209 32.1084 14.4569 31.5158C14.2132 30.9655 13.6446 30.6692 12.9947 30.648C12.1824 30.6269 11.3498 30.6269 10.5375 30.648C9.29874 30.6904 8.44582 29.9073 8.24275 28.8913C8.01936 27.7696 7.81629 26.6478 7.65383 25.5049C7.5929 25.0816 7.32891 24.87 6.98368 24.6795C6.57753 24.489 6.17137 24.2773 5.76522 24.0868C5.39969 23.9175 5.39969 23.6847 5.58245 23.4307C5.88707 22.9439 6.21199 22.4571 6.5166 21.9703C6.84152 21.4624 7.18675 20.9544 7.49137 20.4464C7.5929 20.2771 7.63352 20.0443 7.63352 19.8327C7.65383 18.6686 7.5929 17.4833 7.87721 16.3404C8.1209 15.2821 8.52705 14.2662 9.11597 13.3138C9.84705 12.1074 10.8218 11.1126 12.0606 10.3295C12.7104 9.9062 13.4618 9.60989 14.2132 9.33474C15.9799 8.67863 17.7873 8.74212 19.615 9.03843C19.9196 9.14426 20.2445 9.27125 20.5085 9.35591ZM10.3344 21.1449C11.0046 21.1872 11.5529 20.8909 12.0403 20.5523C12.3246 20.3618 12.3652 19.875 12.1418 19.5787C11.9387 19.3247 11.5732 19.3035 11.2077 19.5363C10.5781 19.9173 10.0907 19.9173 9.4612 19.5152C9.11597 19.3035 8.75044 19.3035 8.56767 19.5575C8.32398 19.8538 8.34428 20.3195 8.6489 20.5099C9.13628 20.8697 9.66428 21.1661 10.3344 21.1449Z" fill="#FFC359"/>
<path d="M30.1153 21.0805C29.3436 21.1228 28.7344 20.8054 28.1454 20.4455C27.8205 20.2339 27.7799 19.7259 28.0439 19.4296C28.2673 19.1756 28.6937 19.1333 29.0593 19.3873C29.7497 19.8318 30.4199 19.8106 31.09 19.3661C31.4556 19.1333 31.8414 19.1756 32.0648 19.4085C32.3491 19.7259 32.3288 20.2127 32.0039 20.4244C31.4556 20.7842 30.8463 21.1228 30.1153 21.0805Z" fill="#46BAC6"/>
<path d="M10.4152 21.25C9.72475 21.2923 9.17644 20.9537 8.66875 20.5727C8.34383 20.3399 8.34383 19.832 8.58752 19.4933C8.7906 19.2182 9.15614 19.197 9.52167 19.451C10.1715 19.8955 10.6995 19.8954 11.329 19.4721C11.7149 19.2182 12.1007 19.2182 12.3038 19.5145C12.5272 19.832 12.5069 20.3822 12.2023 20.5939C11.6743 20.9749 11.1057 21.2923 10.4152 21.25Z" fill="#CD9840"/>
</svg>
