<svg width="10" height="7" viewBox="0 0 10 7" fill="none" xmlns="http://www.w3.org/2000/svg">
<path d="M5.03747 2.53268e-06H4.95753C3.64271 2.53268e-06 2.38173 0.522312 1.45202 1.45203C0.522302 2.38174 0 3.6427 0 4.95752V5.69215C0 5.94531 0.100561 6.18809 0.279569 6.3671C0.458577 6.54611 0.701369 6.64668 0.954524 6.64668H9.0005C9.26558 6.64668 9.51981 6.54137 9.70725 6.35393C9.8947 6.16649 10 5.91226 10 5.64718V4.94752C9.99735 3.63357 9.47318 2.37442 8.54268 1.44673C7.61217 0.519029 6.35142 -0.00132468 5.03747 2.53268e-06ZM0.9995 5.64718V4.95752C1.00082 3.90819 1.41825 2.90222 2.16023 2.16024C2.90222 1.41825 3.9082 1.00082 4.95753 0.999502H5.03747C6.0868 1.00082 7.09278 1.41825 7.83476 2.16024C8.57675 2.90222 8.99417 3.90819 8.9955 4.95752V5.64718H0.9995Z" fill="#474747"/>
<path d="M4.99755 1.65918C4.86501 1.65918 4.7379 1.71183 4.64418 1.80555C4.55046 1.89927 4.4978 2.02639 4.4978 2.15893V2.65868C4.4978 2.79122 4.55046 2.91833 4.64418 3.01205C4.7379 3.10577 4.86501 3.15843 4.99755 3.15843C5.13009 3.15843 5.2572 3.10577 5.35092 3.01205C5.44464 2.91833 5.4973 2.79122 5.4973 2.65868V2.15893C5.4973 2.02639 5.44464 1.89927 5.35092 1.80555C5.2572 1.71183 5.13009 1.65918 4.99755 1.65918Z" fill="#474747"/>
<path d="M3.51317 2.44882C3.46671 2.40198 3.41144 2.3648 3.35054 2.33943C3.28965 2.31406 3.22432 2.30099 3.15835 2.30099C3.09238 2.30099 3.02705 2.31406 2.96615 2.33943C2.90526 2.3648 2.84997 2.40198 2.80352 2.44882C2.71044 2.54245 2.6582 2.66911 2.6582 2.80114C2.6582 2.93317 2.71044 3.05983 2.80352 3.15347L3.15835 3.50829C3.25198 3.60137 3.37864 3.65361 3.51067 3.65361C3.64269 3.65361 3.76936 3.60137 3.863 3.50829C3.95608 3.41466 4.00831 3.28799 4.00831 3.15597C4.00831 3.02394 3.95608 2.89728 3.863 2.80364L3.51317 2.44882Z" fill="#474747"/>
<path d="M6.48672 2.44878L6.13189 2.8036C6.03881 2.89724 5.98657 3.0239 5.98657 3.15593C5.98657 3.28795 6.03881 3.41462 6.13189 3.50825C6.22552 3.60133 6.35219 3.65357 6.48422 3.65357C6.61624 3.65357 6.7429 3.60133 6.83653 3.50825L7.19137 3.15343C7.27324 3.05782 7.31601 2.93484 7.31115 2.80907C7.30629 2.68329 7.25415 2.56399 7.16515 2.47499C7.07615 2.38598 6.95685 2.33384 6.83107 2.32899C6.7053 2.32413 6.58232 2.3669 6.48672 2.44878Z" fill="#474747"/>
</svg>
