<svg width="20" height="20" viewBox="0 0 20 20" fill="none" xmlns="http://www.w3.org/2000/svg">
<rect width="20" height="20" rx="6" fill="#3B99FD"/>
<path d="M14.0415 4.53771L10.0645 3.2237C9.61347 3.07507 9.14154 2.99956 8.66663 3.00003C7.75282 3.00098 6.86254 3.28985 6.12225 3.82562C5.38197 4.36138 4.82934 5.11679 4.54285 5.98454L3.22184 9.96155C3.04315 10.5058 2.97376 11.08 3.01768 11.6511C3.0616 12.2222 3.21796 12.7791 3.47776 13.2896C3.73756 13.8001 4.09569 14.2542 4.53157 14.6259C4.96744 14.9975 5.47247 15.2794 6.01763 15.4553L9.99464 16.7693C10.4457 16.9178 10.9176 16.9933 11.3925 16.993C12.3058 16.9899 13.1951 16.7002 13.935 16.1647C14.6749 15.6293 15.228 14.875 15.5163 14.0084L16.8303 10.0314C17.0092 9.48765 17.0789 8.9139 17.0354 8.34311C16.992 7.77232 16.8362 7.21573 16.5771 6.7053C16.318 6.19486 15.9606 5.74061 15.5255 5.36864C15.0904 4.99667 14.5861 4.71429 14.0415 4.53771ZM15.4744 9.59111L14.1604 13.5681C13.9674 14.1575 13.5931 14.6708 13.0911 15.0348C12.589 15.3988 11.9847 15.5949 11.3646 15.5951C11.0486 15.5929 10.7348 15.541 10.435 15.4413L6.45797 14.1273C5.71684 13.8798 5.10378 13.3491 4.75278 12.651C4.40179 11.953 4.34139 11.1443 4.58479 10.4019L5.89881 6.42488C6.09363 5.83666 6.46835 5.32452 6.97002 4.96081C7.47169 4.5971 8.07496 4.40019 8.6946 4.39793C9.00827 4.40072 9.31957 4.45261 9.6172 4.5517L13.5942 5.86572C14.3366 6.11317 14.9518 6.64297 15.3066 7.3405C15.4821 7.6859 15.5872 8.06267 15.616 8.44899C15.6448 8.83532 15.5967 9.22352 15.4744 9.59111Z" fill="white"/>
<path d="M11.1274 6.67641C9.95767 6.29793 8.68759 6.38042 7.5767 6.90706C7.49518 6.95035 7.42304 7.00937 7.36445 7.08069C7.30585 7.15202 7.26196 7.23424 7.23531 7.32262C7.20867 7.411 7.1998 7.50378 7.20921 7.59561C7.21862 7.68743 7.24612 7.77649 7.29013 7.85762C7.34956 7.96923 7.43815 8.06263 7.54647 8.12787C7.65478 8.1931 7.77877 8.22773 7.90521 8.22807C8.01994 8.22749 8.13276 8.19869 8.23372 8.1442C8.78889 7.89904 9.39833 7.80269 10.0021 7.86462L9.80635 8.45173C9.7487 8.62693 9.76264 8.81781 9.84512 8.98277C9.92761 9.14773 10.0719 9.2734 10.2467 9.3324C10.3206 9.34592 10.3964 9.34592 10.4703 9.3324C10.6228 9.34036 10.7736 9.29821 10.8998 9.21239C11.026 9.12657 11.1207 9.00179 11.1693 8.85712L11.365 8.27001C11.8834 8.5838 12.3139 9.02384 12.6161 9.54907C12.6728 9.66802 12.7619 9.76853 12.8732 9.83902C12.9845 9.9095 13.1134 9.94711 13.2452 9.94748C13.3495 9.94837 13.4525 9.92441 13.5457 9.87758C13.7135 9.79877 13.843 9.65657 13.9059 9.48225C13.9689 9.30792 13.96 9.11576 13.8812 8.94799C13.2854 7.86827 12.3007 7.05602 11.1274 6.67641Z" fill="white"/>
</svg>
