<svg width="68" height="66" viewBox="0 0 68 66" fill="none" xmlns="http://www.w3.org/2000/svg">
<path d="M28.8732 0H40.2961L37.7577 33.6343H31.4116L28.8732 0Z" fill="url(#paint0_linear_162_499)"/>
<path d="M67.2695 26.9705L67.2695 38.3934L33.6353 35.855L33.6353 29.5089L67.2695 26.9705Z" fill="url(#paint1_linear_162_499)"/>
<path d="M0 26.9705L4.99313e-07 38.3934L33.6343 35.855L33.6343 29.5089L0 26.9705Z" fill="url(#paint2_linear_162_499)"/>
<path d="M53.3806 4.86133L61.4579 12.9386L35.8799 34.9266L31.3926 30.4393L53.3806 4.86133Z" fill="url(#paint3_linear_162_499)"/>
<path d="M5.81262 52.426L13.8899 60.5033L35.8779 34.9253L31.3906 30.438L5.81262 52.426Z" fill="url(#paint4_linear_162_499)"/>
<path d="M61.4569 52.426L53.3797 60.5033L31.3916 34.9253L35.879 30.438L61.4569 52.426Z" fill="url(#paint5_linear_162_499)"/>
<path d="M13.8889 4.86133L5.81167 12.9386L31.3896 34.9266L35.877 30.4393L13.8889 4.86133Z" fill="url(#paint6_linear_162_499)"/>
<path d="M28.8732 66H40.2961L37.7577 32.3657H31.4116L28.8732 66Z" fill="url(#paint7_linear_162_499)"/>
<path d="M34.786 52.681C46.2002 52.681 55.4532 43.428 55.4532 32.0138C55.4532 20.5997 46.2002 11.3467 34.786 11.3467C23.3719 11.3467 14.1189 20.5997 14.1189 32.0138C14.1189 43.428 23.3719 52.681 34.786 52.681Z" fill="#FEBE03"/>
<path d="M25.9294 51.1132C25.1128 50.5479 24.2962 49.9825 23.4795 49.4171C23.4167 49.3543 23.2911 49.2915 23.2283 49.1659C23.2283 48.9774 23.2283 48.8518 23.2283 48.6633C23.2283 38.9265 23.2283 29.2525 23.2283 19.5157C23.2283 19.3273 23.2283 19.1388 23.2283 19.0132C24.0449 19.0132 24.9244 19.0132 25.741 19.0132C25.8038 19.0132 25.9294 19.076 25.9923 19.076C25.9923 19.4529 26.0551 19.767 26.0551 20.1439C26.0551 22.9079 26.0551 25.6719 26.0551 28.4359V28.4987C26.0551 29.2525 26.0551 30.0063 26.0551 30.7602C26.0551 33.0216 26.0551 35.2831 26.0551 37.4817C26.0551 37.6702 25.9923 37.7958 25.9923 37.9842C25.9923 42.1302 25.9923 46.339 25.9923 50.485C25.9923 50.7991 25.9923 50.9876 25.9294 51.1132Z" fill="#565B67"/>
<path d="M23.2277 19.0764C23.2277 19.2649 23.2277 19.4533 23.2277 19.579C23.2277 29.0017 23.2277 38.4872 23.2277 47.9099C23.2277 48.0984 23.2277 48.224 23.2277 48.4125L23.1649 48.3496C23.1649 39.3667 23.1649 30.3837 23.1649 21.4007C23.1649 20.7725 23.1649 20.1443 23.1649 19.4533C23.1649 19.3277 23.2277 19.2021 23.2277 19.0764Z" fill="#85A7C6"/>
<path d="M33.2167 20.0801C36.1063 20.0801 39.0588 20.0801 41.9484 20.0801C42.0112 20.0801 42.074 20.1429 42.1368 20.1429C42.1368 20.1429 42.1368 20.1429 42.1368 20.2057C39.1844 20.2057 36.2319 20.2057 33.2795 20.2057C33.2795 20.1429 33.2167 20.1429 33.2167 20.0801C33.2167 20.1429 33.2167 20.1429 33.2167 20.0801Z" fill="#C78FA1"/>
<path d="M26.9926 20.1429V20.0801C29.0656 20.0801 31.1385 20.0801 33.2115 20.0801V20.1429C31.1385 20.1429 29.0656 20.1429 26.9926 20.1429Z" fill="#C8A2B2"/>
<path d="M45.2786 23.4092C46.4093 23.4092 47.54 23.4092 48.6707 23.4092C48.7336 23.4092 48.8592 23.472 48.922 23.472H48.8592C47.6028 23.472 46.4093 23.472 45.2786 23.4092C45.2157 23.4092 45.2157 23.4092 45.2786 23.4092Z" fill="#C1667A"/>
<path d="M42.2011 20.2664C42.2011 21.3343 42.2011 22.3394 42.2011 23.4073C42.2011 23.4073 42.2011 23.4073 42.2011 23.4702C42.2011 23.3445 42.1383 23.2189 42.1383 23.0304C42.1383 22.0882 42.1383 21.1459 42.1383 20.2664C42.1383 20.2664 42.1383 20.2664 42.1383 20.2036C42.2011 20.2036 42.2011 20.2036 42.2011 20.2664Z" fill="#AD6E8A"/>
<path d="M45.277 23.4117C45.2142 23.4117 45.2142 23.4117 45.277 23.4117C44.2719 23.4745 43.2668 23.4745 42.2617 23.4745V23.4117C42.2617 23.4117 42.2617 23.4117 42.2617 23.3489C43.2668 23.3489 44.2091 23.3489 45.2142 23.3489C45.2142 23.3489 45.2142 23.3489 45.277 23.4117Z" fill="#A45679"/>
<path d="M35.4095 37.1678C34.7185 37.1678 33.9647 37.1678 33.2737 37.1678C33.2737 34.2154 33.2737 31.3257 33.2737 28.3733C33.3365 28.3733 33.3993 28.3733 33.3993 28.3733C36.2889 28.3733 39.1786 28.3733 42.0682 28.3733C42.0682 29.3156 42.0682 30.2578 42.0682 31.1373C42.0682 31.2629 42.131 31.3886 42.131 31.577V31.6398C42.131 33.1475 42.131 34.7179 42.131 36.2255C42.131 36.5396 42.0054 36.8537 42.0054 37.1678C39.8696 37.105 37.6081 37.1678 35.4095 37.1678Z" fill="#E9ECF4"/>
<path d="M42.0746 37.1079C42.1374 36.7938 42.2002 36.4797 42.2002 36.1656C42.2002 34.658 42.2002 33.0875 42.2002 31.5799C44.336 31.5799 46.4718 31.5799 48.5448 31.5799C48.6076 31.5799 48.6705 31.5171 48.7333 31.5171H48.7961C48.7961 34.3439 48.7961 37.1707 48.7961 40.0603C48.7961 40.3744 48.6705 40.4373 48.4192 40.4373C45.8436 40.4373 43.2053 40.4373 40.6297 40.4373C38.9965 40.4373 37.3004 40.4373 35.6671 40.4373C35.6671 40.3744 35.6671 40.3744 35.6671 40.3116C36.9235 39.6834 38.2427 39.0553 39.499 38.4271C40.3785 37.9874 41.1951 37.5476 42.0746 37.1079Z" fill="#CDD2E1"/>
<path d="M33.28 28.3728C33.28 31.3252 33.28 34.2149 33.28 37.1673C30.8929 37.1673 28.5059 37.1673 26.1188 37.1673C26.1188 34.9687 26.1188 32.7701 26.1188 30.5714C26.1188 29.8176 26.1188 29.0638 26.1188 28.3728C28.5059 28.31 30.8929 28.31 33.28 28.3728Z" fill="white"/>
<path d="M42.0695 37.1064C41.2528 37.5462 40.3734 37.9859 39.5568 38.3628C38.3004 38.991 36.9812 39.6192 35.7249 40.2473C35.662 40.2473 35.5992 40.3102 35.4736 40.3102C35.4736 40.1845 35.4108 40.0589 35.4108 39.9333C35.4108 38.991 35.4108 38.0487 35.4108 37.1064C37.6094 37.1693 39.8708 37.1064 42.0695 37.1064Z" fill="#72788A"/>
<path d="M25.9287 50.2327C25.9287 50.0442 25.9915 49.9186 25.9915 49.7301C25.9915 45.7098 25.9915 41.6266 25.9915 37.6062C25.9915 37.4806 25.9915 37.2921 26.0543 37.1665C26.0543 37.2293 26.0543 37.355 26.0543 37.4178C26.0543 41.7522 26.0543 46.0239 26.0543 50.3583C26.0543 50.2955 25.9915 50.2955 25.9287 50.2327Z" fill="#5A718C"/>
<path d="M48.8559 31.5146H48.7931C48.7931 28.8134 48.7931 26.1751 48.7931 23.4739H48.8559C48.8559 24.9187 48.8559 26.3635 48.8559 27.8083C48.8559 29.0647 48.8559 30.321 48.8559 31.5146Z" fill="#C12B3C"/>
<path d="M35.4772 40.3699C35.54 40.3699 35.6028 40.3071 35.7284 40.3071C35.7284 40.3699 35.7284 40.3699 35.7284 40.4328C35.6656 40.3699 35.54 40.3699 35.4772 40.3699Z" fill="#B5CAE6"/>
<path d="M26.9982 20.1429C29.0712 20.1429 31.1442 20.1429 33.2172 20.1429H33.28C33.28 22.8441 33.28 25.5452 33.28 28.1836C30.8929 28.1836 28.5059 28.1836 26.1188 28.1836C26.1188 25.4824 26.1188 22.7813 26.1188 20.0801C26.4329 20.1429 26.6841 20.1429 26.9982 20.1429Z" fill="#F15B43"/>
<path d="M26.1188 28.2483C28.5059 28.2483 30.8929 28.2483 33.28 28.2483C33.3429 28.2483 33.3429 28.2483 33.4057 28.2483V28.3111C33.3429 28.3111 33.28 28.3111 33.28 28.3111C30.8929 28.3111 28.5059 28.3111 26.1188 28.3111V28.2483Z" fill="#F58D7D"/>
<path d="M33.3993 28.2443C33.3365 28.2443 33.3365 28.2443 33.2737 28.2443C33.2737 25.5431 33.2737 22.842 33.2737 20.2036C36.2261 20.2036 39.1786 20.2036 42.131 20.2036C42.131 21.1459 42.131 22.0882 42.131 22.9676C42.131 23.0932 42.1938 23.2189 42.1938 23.4073V23.4702C42.1938 25.1034 42.1938 26.7367 42.1938 28.37H42.131C42.0054 28.37 41.8798 28.3071 41.7541 28.3071C41.0631 28.3071 40.3093 28.3071 39.6183 28.3071C37.5453 28.2443 35.4723 28.2443 33.3993 28.2443Z" fill="#EE3224"/>
<path d="M42.2017 28.309C42.2017 26.6757 42.2017 25.0424 42.2017 23.4092C43.2067 23.4092 44.2118 23.4092 45.2169 23.4092C46.4105 23.4092 47.604 23.4092 48.7976 23.4092C48.7976 26.1104 48.7976 28.7487 48.7976 31.4499C48.7347 31.4499 48.6719 31.5127 48.6091 31.5127C48.5463 31.5127 48.4206 31.4499 48.3578 31.4499C46.3477 31.4499 44.2747 31.4499 42.2645 31.4499C42.2017 30.4448 42.2017 29.3769 42.2017 28.309Z" fill="#DA2126"/>
<path d="M33.4067 28.2483C35.4797 28.2483 37.4899 28.2483 39.5629 28.2483C40.2539 28.2483 41.0077 28.2483 41.6987 28.2483C41.8244 28.2483 41.95 28.3111 42.0756 28.3111C39.2488 28.3111 36.3592 28.3111 33.4067 28.2483C33.4696 28.3111 33.4067 28.3111 33.4067 28.2483Z" fill="#F2675D"/>
<path d="M42.2017 31.5171C44.2118 31.5171 46.2848 31.5171 48.295 31.5171C48.3578 31.5171 48.4835 31.5799 48.5463 31.5799C46.4105 31.5799 44.2747 31.5799 42.2017 31.5799C42.2017 31.5799 42.2017 31.5799 42.2017 31.5171Z" fill="#D56A71"/>
<path d="M42.2011 28.3098C42.2011 29.3777 42.2011 30.4456 42.2011 31.5135C42.2011 31.3879 42.1383 31.2623 42.1383 31.0738C42.1383 30.1315 42.1383 29.1893 42.1383 28.3098H42.2011Z" fill="#E3767A"/>
<defs>
<linearGradient id="paint0_linear_162_499" x1="34.5846" y1="0" x2="34.5846" y2="33.6343" gradientUnits="userSpaceOnUse">
<stop stop-color="white" stop-opacity="0"/>
<stop offset="1" stop-color="white"/>
</linearGradient>
<linearGradient id="paint1_linear_162_499" x1="67.2695" y1="32.6819" x2="33.6353" y2="32.6819" gradientUnits="userSpaceOnUse">
<stop stop-color="white" stop-opacity="0"/>
<stop offset="1" stop-color="white"/>
</linearGradient>
<linearGradient id="paint2_linear_162_499" x1="2.49657e-07" y1="32.6819" x2="33.6343" y2="32.6819" gradientUnits="userSpaceOnUse">
<stop stop-color="white" stop-opacity="0"/>
<stop offset="1" stop-color="white"/>
</linearGradient>
<linearGradient id="paint3_linear_162_499" x1="57.4192" y1="8.89995" x2="33.6362" y2="32.683" gradientUnits="userSpaceOnUse">
<stop stop-color="white" stop-opacity="0"/>
<stop offset="1" stop-color="white"/>
</linearGradient>
<linearGradient id="paint4_linear_162_499" x1="9.85125" y1="56.4646" x2="33.6343" y2="32.6816" gradientUnits="userSpaceOnUse">
<stop stop-color="white" stop-opacity="0"/>
<stop offset="1" stop-color="white"/>
</linearGradient>
<linearGradient id="paint5_linear_162_499" x1="57.4183" y1="56.4646" x2="33.6353" y2="32.6816" gradientUnits="userSpaceOnUse">
<stop stop-color="white" stop-opacity="0"/>
<stop offset="1" stop-color="white"/>
</linearGradient>
<linearGradient id="paint6_linear_162_499" x1="9.85029" y1="8.89995" x2="33.6333" y2="32.683" gradientUnits="userSpaceOnUse">
<stop stop-color="white" stop-opacity="0"/>
<stop offset="1" stop-color="white"/>
</linearGradient>
<linearGradient id="paint7_linear_162_499" x1="34.5846" y1="66" x2="34.5846" y2="32.3657" gradientUnits="userSpaceOnUse">
<stop stop-color="white" stop-opacity="0"/>
<stop offset="1" stop-color="white"/>
</linearGradient>
</defs>
</svg>
