<svg width="9" height="10" viewBox="0 0 9 10" fill="none" xmlns="http://www.w3.org/2000/svg">
<path d="M6.5 4H5.5C4.83696 4 4.20108 4.26339 3.73224 4.73223C3.2634 5.20107 3 5.83696 3 6.5V7.5C3 8.16304 3.2634 8.79893 3.73224 9.26777C4.20108 9.73661 4.83696 10 5.5 10H6.5C7.16304 10 7.79893 9.73661 8.26777 9.26777C8.73661 8.79893 9 8.16304 9 7.5V6.5C9 5.83696 8.73661 5.20107 8.26777 4.73223C7.79893 4.26339 7.16304 4 6.5 4ZM8 7.5C8 7.89782 7.84197 8.27936 7.56066 8.56066C7.27936 8.84197 6.89782 9 6.5 9H5.5C5.10218 9 4.72065 8.84197 4.43935 8.56066C4.15804 8.27936 4 7.89782 4 7.5V6.5C4 6.10218 4.15804 5.72064 4.43935 5.43934C4.72065 5.15803 5.10218 5 5.5 5H6.5C6.89782 5 7.27936 5.15803 7.56066 5.43934C7.84197 5.72064 8 6.10218 8 6.5V7.5Z" fill="#474747"/>
<path d="M6.00001 3.5C6.34612 3.5 6.68447 3.39736 6.97226 3.20507C7.26005 3.01278 7.48434 2.73947 7.6168 2.4197C7.74925 2.09993 7.78391 1.74806 7.71638 1.40859C7.64886 1.06912 7.48219 0.757305 7.23745 0.512563C6.99271 0.267822 6.68088 0.101152 6.34141 0.0336281C6.00195 -0.033896 5.65008 0.000753656 5.33031 0.133207C5.01054 0.26566 4.73723 0.489968 4.54494 0.777754C4.35264 1.06554 4.25001 1.40388 4.25001 1.75C4.24935 1.98 4.29416 2.20786 4.38187 2.42048C4.46959 2.63309 4.59847 2.82627 4.7611 2.9889C4.92373 3.15154 5.11692 3.28042 5.32954 3.36813C5.54215 3.45584 5.77001 3.50066 6.00001 3.5ZM6.00001 0.999998C6.14834 0.999998 6.29335 1.04398 6.41669 1.12639C6.54002 1.2088 6.63615 1.32594 6.69292 1.46299C6.74968 1.60003 6.76454 1.75083 6.7356 1.89631C6.70666 2.0418 6.63523 2.17544 6.53034 2.28033C6.42545 2.38522 6.29182 2.45665 6.14633 2.48559C6.00085 2.51452 5.85004 2.49967 5.713 2.44291C5.57595 2.38614 5.45882 2.29001 5.37641 2.16668C5.294 2.04334 5.25001 1.89833 5.25001 1.75C5.25001 1.55109 5.32903 1.36032 5.46968 1.21967C5.61033 1.07902 5.80109 0.999998 6.00001 0.999998Z" fill="#474747"/>
<path d="M1.5 1C1.63261 1 1.75979 0.947322 1.85355 0.853554C1.94732 0.759786 2 0.632608 2 0.5C2 0.367392 1.94732 0.240214 1.85355 0.146446C1.75979 0.052678 1.63261 0 1.5 0H0.889999C0.653957 0 0.427589 0.0937662 0.260681 0.260674C0.0937738 0.427581 0 0.653957 0 0.889999V9.5C0 9.63261 0.052678 9.75979 0.146446 9.85355C0.240214 9.94732 0.367392 10 0.5 10C0.632608 10 0.759786 9.94732 0.853554 9.85355C0.947322 9.75979 1 9.63261 1 9.5V5H1.5C1.63261 5 1.75979 4.94732 1.85355 4.85355C1.94732 4.75979 2 4.63261 2 4.5C2 4.36739 1.94732 4.24021 1.85355 4.14645C1.75979 4.05268 1.63261 4 1.5 4H1V3H1.5C1.63261 3 1.75979 2.94732 1.85355 2.85355C1.94732 2.75979 2 2.63261 2 2.5C2 2.36739 1.94732 2.24021 1.85355 2.14645C1.75979 2.05268 1.63261 2 1.5 2H1V1H1.5Z" fill="#474747"/>
</svg>
