<svg width="41" height="41" viewBox="0 0 41 41" fill="none" xmlns="http://www.w3.org/2000/svg">
<path d="M20.4689 40.9378C31.7736 40.9378 40.9378 31.7736 40.9378 20.4689C40.9378 9.16424 31.7736 0 20.4689 0C9.16424 0 0 9.16424 0 20.4689C0 31.7736 9.16424 40.9378 20.4689 40.9378Z" fill="#FEBE03"/>
<path d="M11.6948 39.3829C10.886 38.823 10.0772 38.2631 9.26839 37.7031C9.20618 37.6409 9.08175 37.5787 9.01953 37.4543C9.01953 37.2676 9.01953 37.1432 9.01953 36.9565C9.01953 27.3131 9.01953 17.7319 9.01953 8.08854C9.01953 7.9019 9.01953 7.71525 9.01953 7.59082C9.82833 7.59082 10.6993 7.59082 11.5082 7.59082C11.5704 7.59082 11.6948 7.65304 11.757 7.65304C11.757 8.02633 11.8192 8.33741 11.8192 8.7107C11.8192 11.4482 11.8192 14.1857 11.8192 16.9231V16.9854C11.8192 17.7319 11.8192 18.4785 11.8192 19.2251C11.8192 21.4649 11.8192 23.7046 11.8192 25.8822C11.8192 26.0688 11.757 26.1932 11.757 26.3799C11.757 30.4861 11.757 34.6546 11.757 38.7608C11.757 39.0719 11.757 39.2585 11.6948 39.3829Z" fill="#565B67"/>
<path d="M9.01925 7.65234C9.01925 7.83899 9.01925 8.02564 9.01925 8.15007C9.01925 17.4824 9.01925 26.8769 9.01925 36.2092C9.01925 36.3959 9.01925 36.5203 9.01925 36.707L8.95703 36.6448C8.95703 27.7479 8.95703 18.8511 8.95703 9.95432C8.95703 9.33216 8.95703 8.71001 8.95703 8.02564C8.95703 7.90121 9.01925 7.77677 9.01925 7.65234Z" fill="#85A7C6"/>
<path d="M18.9102 8.64746C21.7721 8.64746 24.6962 8.64746 27.5581 8.64746C27.6203 8.64746 27.6825 8.70968 27.7448 8.70968C27.7448 8.70968 27.7448 8.70968 27.7448 8.77189C24.8206 8.77189 21.8965 8.77189 18.9724 8.77189C18.9724 8.70968 18.9102 8.70968 18.9102 8.64746C18.9102 8.70968 18.9102 8.70968 18.9102 8.64746Z" fill="#C78FA1"/>
<path d="M12.75 8.70968V8.64746C14.8031 8.64746 16.8562 8.64746 18.9093 8.64746V8.70968C16.8562 8.70968 14.8031 8.70968 12.75 8.70968Z" fill="#C8A2B2"/>
<path d="M30.8592 11.9473C31.979 11.9473 33.0989 11.9473 34.2188 11.9473C34.281 11.9473 34.4054 12.0095 34.4677 12.0095H34.4054C33.1611 12.0095 31.979 12.0095 30.8592 11.9473C30.7969 11.9473 30.7969 11.9473 30.8592 11.9473Z" fill="#C1667A"/>
<path d="M27.8083 8.8337C27.8083 9.89136 27.8083 10.8868 27.8083 11.9445C27.8083 11.9445 27.8083 11.9445 27.8083 12.0067C27.8083 11.8823 27.7461 11.7578 27.7461 11.5712C27.7461 10.6379 27.7461 9.70472 27.7461 8.8337C27.7461 8.8337 27.7461 8.8337 27.7461 8.77148C27.8083 8.77148 27.8083 8.77148 27.8083 8.8337Z" fill="#AD6E8A"/>
<path d="M30.8574 11.945C30.7952 11.945 30.7952 11.945 30.8574 11.945C29.862 12.0072 28.8665 12.0072 27.8711 12.0072V11.945C27.8711 11.945 27.8711 11.945 27.8711 11.8828C28.8665 11.8828 29.7998 11.8828 30.7952 11.8828C30.7952 11.8828 30.7952 11.8828 30.8574 11.945Z" fill="#A45679"/>
<path d="M21.088 25.5715C20.4036 25.5715 19.657 25.5715 18.9727 25.5715C18.9727 22.6474 18.9727 19.7855 18.9727 16.8613C19.0349 16.8613 19.0971 16.8613 19.0971 16.8613C21.959 16.8613 24.8209 16.8613 27.6828 16.8613C27.6828 17.7946 27.6828 18.7278 27.6828 19.5988C27.6828 19.7232 27.745 19.8477 27.745 20.0343V20.0965C27.745 21.5897 27.745 23.1451 27.745 24.6383C27.745 24.9493 27.6206 25.2604 27.6206 25.5715C25.5053 25.5093 23.2655 25.5715 21.088 25.5715Z" fill="#E9ECF4"/>
<path d="M27.6858 25.5108C27.748 25.1997 27.8103 24.8887 27.8103 24.5776C27.8103 23.0844 27.8103 21.529 27.8103 20.0358C29.9256 20.0358 32.0409 20.0358 34.094 20.0358C34.1562 20.0358 34.2184 19.9736 34.2807 19.9736H34.3429C34.3429 22.7733 34.3429 25.573 34.3429 28.4349C34.3429 28.746 34.2184 28.8082 33.9696 28.8082C31.4188 28.8082 28.8057 28.8082 26.2549 28.8082C24.6373 28.8082 22.9574 28.8082 21.3398 28.8082C21.3398 28.746 21.3398 28.746 21.3398 28.6838C22.5842 28.0616 23.8907 27.4395 25.135 26.8173C26.006 26.3818 26.8148 25.9463 27.6858 25.5108Z" fill="#CDD2E1"/>
<path d="M18.9754 16.8621C18.9754 19.7862 18.9754 22.6481 18.9754 25.5723C16.6112 25.5723 14.247 25.5723 11.8828 25.5723C11.8828 23.3947 11.8828 21.2172 11.8828 19.0396C11.8828 18.293 11.8828 17.5465 11.8828 16.8621C14.247 16.7999 16.6112 16.7999 18.9754 16.8621Z" fill="white"/>
<path d="M27.6808 25.5098C26.872 25.9453 26.001 26.3808 25.1922 26.7541C23.9478 27.3762 22.6413 27.9984 21.397 28.6205C21.3348 28.6205 21.2726 28.6828 21.1482 28.6828C21.1482 28.5583 21.0859 28.4339 21.0859 28.3095C21.0859 27.3762 21.0859 26.443 21.0859 25.5098C23.2635 25.572 25.5032 25.5098 27.6808 25.5098Z" fill="#72788A"/>
<path d="M11.6953 38.5102C11.6953 38.3235 11.7575 38.1991 11.7575 38.0124C11.7575 34.0306 11.7575 29.9866 11.7575 26.0048C11.7575 25.8804 11.7575 25.6938 11.8197 25.5693C11.8197 25.6316 11.8197 25.756 11.8197 25.8182C11.8197 30.1111 11.8197 34.3417 11.8197 38.6346C11.8197 38.5724 11.7575 38.5724 11.6953 38.5102Z" fill="#5A718C"/>
<path d="M34.4021 19.9704H34.3398C34.3398 17.2952 34.3398 14.6821 34.3398 12.0068H34.4021C34.4021 13.4378 34.4021 14.8687 34.4021 16.2997C34.4021 17.544 34.4021 18.7883 34.4021 19.9704Z" fill="#C12B3C"/>
<path d="M21.1523 28.7429C21.2146 28.7429 21.2768 28.6807 21.4012 28.6807C21.4012 28.7429 21.4012 28.7429 21.4012 28.8051C21.339 28.7429 21.2146 28.7429 21.1523 28.7429Z" fill="#B5CAE6"/>
<path d="M12.7538 8.70968C14.8069 8.70968 16.8601 8.70968 18.9132 8.70968H18.9754C18.9754 11.3849 18.9754 14.0602 18.9754 16.6733C16.6112 16.6733 14.247 16.6733 11.8828 16.6733C11.8828 13.998 11.8828 11.3227 11.8828 8.64746C12.1939 8.70968 12.4428 8.70968 12.7538 8.70968Z" fill="#F15B43"/>
<path d="M11.8828 16.7383C14.247 16.7383 16.6112 16.7383 18.9754 16.7383C19.0376 16.7383 19.0376 16.7383 19.0998 16.7383V16.8005C19.0376 16.8005 18.9754 16.8005 18.9754 16.8005C16.6112 16.8005 14.247 16.8005 11.8828 16.8005V16.7383Z" fill="#F58D7D"/>
<path d="M19.0971 16.7351C19.0349 16.7351 19.0349 16.7351 18.9727 16.7351C18.9727 14.0598 18.9727 11.3845 18.9727 8.77148C21.8968 8.77148 24.8209 8.77148 27.745 8.77148C27.745 9.70472 27.745 10.6379 27.745 11.509C27.745 11.6334 27.8073 11.7578 27.8073 11.9445V12.0067C27.8073 13.6243 27.8073 15.2419 27.8073 16.8595H27.745C27.6206 16.8595 27.4962 16.7973 27.3717 16.7973C26.6874 16.7973 25.9408 16.7973 25.2564 16.7973C23.2033 16.7351 21.1502 16.7351 19.0971 16.7351Z" fill="#EE3224"/>
<path d="M27.8086 16.8001C27.8086 15.1825 27.8086 13.5649 27.8086 11.9473C28.804 11.9473 29.7995 11.9473 30.7949 11.9473C31.977 11.9473 33.1591 11.9473 34.3412 11.9473C34.3412 14.6225 34.3412 17.2356 34.3412 19.9108C34.279 19.9108 34.2168 19.9731 34.1546 19.9731C34.0924 19.9731 33.9679 19.9108 33.9057 19.9108C31.9148 19.9108 29.8617 19.9108 27.8708 19.9108C27.8086 18.9154 27.8086 17.8577 27.8086 16.8001Z" fill="#DA2126"/>
<path d="M19.0977 16.7383C21.1508 16.7383 23.1417 16.7383 25.1948 16.7383C25.8791 16.7383 26.6257 16.7383 27.3101 16.7383C27.4345 16.7383 27.559 16.8005 27.6834 16.8005C24.8837 16.8005 22.0218 16.8005 19.0977 16.7383C19.1599 16.8005 19.0977 16.8005 19.0977 16.7383Z" fill="#F2675D"/>
<path d="M27.8086 19.9736C29.7995 19.9736 31.8526 19.9736 33.8435 19.9736C33.9057 19.9736 34.0301 20.0358 34.0924 20.0358C31.977 20.0358 29.8617 20.0358 27.8086 20.0358C27.8086 20.0358 27.8086 20.0358 27.8086 19.9736Z" fill="#D56A71"/>
<path d="M27.8083 16.7979C27.8083 17.8555 27.8083 18.9132 27.8083 19.9708C27.8083 19.8464 27.7461 19.722 27.7461 19.5353C27.7461 18.6021 27.7461 17.6689 27.7461 16.7979H27.8083Z" fill="#E3767A"/>
</svg>
