<svg width="10" height="10" viewBox="0 0 10 10" fill="none" xmlns="http://www.w3.org/2000/svg">
<g clip-path="url(#clip0_273_1035)">
<path d="M6.9 0.00500893H3.105C2.69748 0.00435164 2.29383 0.0840489 1.91714 0.239544C1.54046 0.395039 1.19813 0.623278 0.909737 0.911206C0.621345 1.19913 0.392552 1.5411 0.23645 1.91754C0.080348 2.29397 -5.30069e-07 2.69749 0 3.10501V6.90501C0.00132469 7.72764 0.329037 8.51613 0.911194 9.09735C1.49335 9.67857 2.28236 10.005 3.105 10.005H6.9C7.72217 10.005 8.51066 9.6784 9.09203 9.09704C9.67339 8.51568 10 7.72718 10 6.90501V3.10501C10.0007 2.69772 9.92092 2.29432 9.76537 1.91791C9.60981 1.54151 9.38149 1.1995 9.0935 0.911511C8.80551 0.623518 8.4635 0.3952 8.0871 0.239643C7.71069 0.084087 7.30728 0.00435043 6.9 0.00500893ZM9 6.90501C8.99868 7.46156 8.777 7.99494 8.38346 8.38848C7.98992 8.78202 7.45655 9.00369 6.9 9.00501H3.105C2.54758 9.00501 2.01292 8.78392 1.6183 8.39024C1.22368 7.99656 1.00132 7.46242 1 6.90501V3.10501C1.00132 2.54759 1.22368 2.01346 1.6183 1.61978C2.01292 1.22609 2.54758 1.00501 3.105 1.00501H6.9C7.45696 1.00501 7.9911 1.22626 8.38493 1.62008C8.77875 2.01391 9 2.54805 9 3.10501V6.90501Z" fill="#474747"/>
<path d="M5.00018 2.50498C4.45916 2.4765 3.91858 2.56898 3.41779 2.77569C2.917 2.98241 2.46859 3.29816 2.10518 3.69998C2.02609 3.8045 1.99122 3.9359 2.00805 4.06589C2.02488 4.19587 2.09208 4.31405 2.19518 4.39498C2.28246 4.46271 2.38971 4.49964 2.50018 4.49998C2.57613 4.50039 2.65117 4.48349 2.71961 4.45057C2.78805 4.41765 2.84809 4.36957 2.89518 4.30998C3.3168 3.86324 3.88814 3.58736 4.50018 3.53498V4.50498C4.50018 4.63759 4.55286 4.76477 4.64663 4.85853C4.7404 4.9523 4.86757 5.00498 5.00018 5.00498C5.13279 5.00498 5.25997 4.9523 5.35374 4.85853C5.4475 4.76477 5.50018 4.63759 5.50018 4.50498V3.53498C6.11046 3.58855 6.67982 3.86433 7.10018 4.30998C7.18049 4.41529 7.2993 4.48445 7.43053 4.50226C7.56177 4.52007 7.69471 4.48508 7.80018 4.40498C7.85304 4.36518 7.89748 4.31528 7.93091 4.25818C7.96434 4.20107 7.9861 4.1379 7.99494 4.07233C8.00378 4.00675 7.99951 3.94007 7.98238 3.87615C7.96526 3.81223 7.93562 3.75236 7.89518 3.69998C7.53177 3.29816 7.08336 2.98241 6.58257 2.77569C6.08178 2.56898 5.54121 2.4765 5.00018 2.50498Z" fill="#474747"/>
</g>
<defs>
<clipPath id="clip0_273_1035">
<rect width="10" height="10" fill="white"/>
</clipPath>
</defs>
</svg>
